<?xml version="1.0" encoding="UTF-8" standalone="no"?>
<!-- Created with Inkscape (http://www.inkscape.org/) -->

<svg
   width="31.366947mm"
   height="31.240553mm"
   viewBox="0 0 31.366947 31.240553"
   version="1.1"
   id="svg1"
   xml:space="preserve"
   inkscape:version="1.4 (86a8ad7, 2024-10-11)"
   sodipodi:docname="Solenne-references.svg"
   xmlns:inkscape="http://www.inkscape.org/namespaces/inkscape"
   xmlns:sodipodi="http://sodipodi.sourceforge.net/DTD/sodipodi-0.dtd"
   xmlns:xlink="http://www.w3.org/1999/xlink"
   xmlns="http://www.w3.org/2000/svg"
   xmlns:svg="http://www.w3.org/2000/svg"><sodipodi:namedview
     id="namedview1"
     pagecolor="#ffffff"
     bordercolor="#000000"
     borderopacity="0.25"
     inkscape:showpageshadow="2"
     inkscape:pageopacity="0.0"
     inkscape:pagecheckerboard="0"
     inkscape:deskcolor="#d1d1d1"
     inkscape:document-units="mm"
     showguides="true"
     inkscape:zoom="0.97386896"
     inkscape:cx="2230.7929"
     inkscape:cy="-878.45494"
     inkscape:window-width="1920"
     inkscape:window-height="991"
     inkscape:window-x="-9"
     inkscape:window-y="-9"
     inkscape:window-maximized="1"
     inkscape:current-layer="layer1"><inkscape:page
       x="0"
       y="0"
       width="31.366947"
       height="31.240553"
       id="page2"
       margin="0"
       bleed="0" /></sodipodi:namedview><defs
     id="defs1"><linearGradient
       id="linearGradient19"
       inkscape:collect="always"><stop
         style="stop-color:#36d9b3;stop-opacity:1;"
         offset="0"
         id="stop19" /><stop
         style="stop-color:#02c9de;stop-opacity:1;"
         offset="1"
         id="stop20" /></linearGradient><linearGradient
       inkscape:collect="always"
       xlink:href="#linearGradient19"
       id="linearGradient51"
       gradientUnits="userSpaceOnUse"
       x1="309.11707"
       y1="114.15655"
       x2="434.59985"
       y2="114.15655" /><linearGradient
       inkscape:collect="always"
       xlink:href="#linearGradient19"
       id="linearGradient52"
       gradientUnits="userSpaceOnUse"
       x1="309.11707"
       y1="114.15655"
       x2="434.59985"
       y2="114.15655" /><linearGradient
       inkscape:collect="always"
       xlink:href="#linearGradient19"
       id="linearGradient53"
       gradientUnits="userSpaceOnUse"
       x1="309.11707"
       y1="114.15655"
       x2="434.59985"
       y2="114.15655" /><linearGradient
       inkscape:collect="always"
       xlink:href="#linearGradient19"
       id="linearGradient54"
       gradientUnits="userSpaceOnUse"
       gradientTransform="translate(226.03999,-339.05999)"
       x1="309.11707"
       y1="114.15655"
       x2="434.59985"
       y2="114.15655" /></defs><g
     inkscape:label="Camada 1"
     inkscape:groupmode="layer"
     id="layer1"
     transform="translate(-545.20934,301.38065)"><g
       id="g51"
       transform="translate(10.052259,-60.856921)"><g
         id="g49"
         transform="matrix(1.345561,0,0,1.345561,98.87463,-378.51966)"
         style="fill:url(#linearGradient53)"><path
           id="path48"
           style="fill:url(#linearGradient51);stroke-width:0.354008"
           d="m 335.92921,102.55643 c -3.5921,0.0111 -6.97715,1.68107 -9.16949,4.52368 3.17503,-2.08784 10.25233,-3.60818 16.06695,1.68331 3.81106,3.46818 -5.21718,10.20851 -4.8192,16.79981 5.51696,-1.00184 9.53092,-5.79641 9.54232,-11.39805 -4e-5,-6.41132 -5.20273,-11.60871 -11.62058,-11.60875 z"
           sodipodi:nodetypes="ccsccc" /><path
           id="path49"
           style="fill:url(#linearGradient52);stroke-width:0.468671"
           d="m 326.0323,107.86099 c -0.95673,1.65032 -1.79031,4.19215 -1.79398,6.26907 -5e-5,6.43081 5.23419,11.64399 11.69088,11.64387 0.83778,-0.0103 1.67204,-0.11011 2.48838,-0.29796 -11.40184,-2.3571 -5.81569,-10.66869 -8.21462,-11.12444 -1.36272,-0.2589 -2.67029,-1.28613 -3.31483,-2.5156 -0.64454,-1.22947 -0.75234,-4.15345 -0.85583,-3.97495 z"
           sodipodi:nodetypes="scccasss" /></g><path
         style="fill:url(#linearGradient54);fill-opacity:1;stroke-width:0.257719"
         d="m 556.12999,-232.51101 -0.52448,2.51746 -2.56988,0.8916 2.63621,0.33336 0.77282,2.34145 0.62032,-2.36013 2.52652,-0.8916 -2.6501,-0.37674 z"
         id="path50"
         sodipodi:nodetypes="ccccccccc" /></g></g></svg>
